<?xml version="1.0" encoding="UTF-8"?>
<svg xmlns="http://www.w3.org/2000/svg" viewBox="0 0 1400 480" width="1400" height="480">

  <rect width="1400" height="480" fill="#f7f5f0"/>

  <line x1="100" y1="60" x2="135" y2="60" stroke="#1a1a1a" stroke-width="1"/>
  <text x="145" y="64" font-family="monospace" font-size="11" fill="#1a1a1a" letter-spacing="3">01 / PROFILE</text>

  <line x1="1265" y1="60" x2="1300" y2="60" stroke="#1a1a1a" stroke-width="1"/>
  <text x="1255" y="64" font-family="monospace" font-size="11" fill="#1a1a1a" letter-spacing="3" text-anchor="end">JEJU, KR</text>

  <text x="100" y="195" font-family="Georgia, serif" font-size="120" font-weight="300" font-style="italic" fill="#1a1a1a" letter-spacing="-3">Yoon Jae</text>

  <text x="100" y="230" font-family="Georgia, serif" font-size="20" font-weight="300" fill="#888888" letter-spacing="6">YOON JAE</text>

  <line x1="100" y1="270" x2="160" y2="270" stroke="#1a1a1a" stroke-width="1"/>

  <text x="100" y="305" font-family="sans-serif" font-size="16" fill="#1a1a1a" font-weight="400" letter-spacing="1">Robotics and AI engineer.</text>
  <text x="100" y="328" font-family="sans-serif" font-size="16" fill="#666666" font-weight="300" letter-spacing="1">Building autonomy for legged robots.</text>

  <line x1="100" y1="395" x2="1300" y2="395" stroke="#1a1a1a" stroke-width="0.5"/>

  <text x="100" y="420" font-family="monospace" font-size="10" fill="#666666" letter-spacing="2">ROLE</text>
  <text x="100" y="438" font-family="monospace" font-size="12" fill="#1a1a1a">Engineer</text>

  <text x="260" y="420" font-family="monospace" font-size="10" fill="#666666" letter-spacing="2">FOCUS</text>
  <text x="260" y="438" font-family="monospace" font-size="12" fill="#1a1a1a">Unitree Go2</text>

  <text x="450" y="420" font-family="monospace" font-size="10" fill="#666666" letter-spacing="2">STACK</text>
  <text x="450" y="438" font-family="monospace" font-size="12" fill="#1a1a1a">ROS2 / PyTorch / Isaac Sim</text>

  <text x="800" y="420" font-family="monospace" font-size="10" fill="#666666" letter-spacing="2">EST.</text>
  <text x="800" y="438" font-family="monospace" font-size="12" fill="#1a1a1a">2022</text>

  <text x="920" y="420" font-family="monospace" font-size="10" fill="#666666" letter-spacing="2">STATUS</text>
  <text x="920" y="438" font-family="monospace" font-size="12" fill="#1a1a1a">Active</text>

  <rect x="1220" y="175" width="80" height="80" fill="none" stroke="#c8202e" stroke-width="3"/>
  <text x="1260" y="211" font-family="Georgia, serif" font-size="22" fill="#c8202e" text-anchor="middle" font-weight="500">YJ</text>
  <text x="1260" y="237" font-family="Georgia, serif" font-size="10" fill="#c8202e" text-anchor="middle" font-weight="500" letter-spacing="2">2025</text>

  <text x="820" y="112" font-family="monospace" font-size="9" fill="#999999" letter-spacing="2">FIG. 01 - QUADRUPED REFERENCE</text>

  <rect x="900" y="170" width="180" height="38" fill="none" stroke="#1a1a1a" stroke-width="1.2" rx="2"/>

  <line x1="920" y1="178" x2="1060" y2="178" stroke="#1a1a1a" stroke-width="0.5"/>
  <line x1="920" y1="200" x2="1060" y2="200" stroke="#1a1a1a" stroke-width="0.5"/>

  <circle cx="920" cy="189" r="2" fill="#1a1a1a"/>
  <circle cx="1060" cy="189" r="2" fill="#1a1a1a"/>

  <path d="M 1080 175 L 1115 175 L 1125 185 L 1125 198 L 1115 208 L 1080 208 Z" fill="none" stroke="#1a1a1a" stroke-width="1.2"/>

  <circle cx="1110" cy="191" r="4" fill="#1a1a1a" stroke="#1a1a1a" stroke-width="1"/>

  <rect x="1092" y="164" width="20" height="8" fill="none" stroke="#1a1a1a" stroke-width="0.8" rx="1"/>
  <circle cx="1102" cy="168" r="1.5" fill="#1a1a1a"/>

  <line x1="1095" y1="164" x2="1095" y2="155" stroke="#1a1a1a" stroke-width="0.5"/>
  <circle cx="1095" cy="154" r="1" fill="#1a1a1a"/>

  <rect x="885" y="180" width="18" height="18" fill="none" stroke="#1a1a1a" stroke-width="1" rx="1"/>

  <circle cx="1045" cy="208" r="4" fill="#f7f5f0" stroke="#1a1a1a" stroke-width="1.2"/>
  <line x1="1045" y1="211" x2="1040" y2="245" stroke="#1a1a1a" stroke-width="1.4"/>
  <circle cx="1040" cy="247" r="3.5" fill="#f7f5f0" stroke="#1a1a1a" stroke-width="1.2"/>
  <line x1="1042" y1="249" x2="1052" y2="290" stroke="#1a1a1a" stroke-width="1.4"/>
  <circle cx="1053" cy="292" r="2.5" fill="#1a1a1a"/>

  <circle cx="1028" cy="208" r="3.5" fill="#f7f5f0" stroke="#888888" stroke-width="1"/>
  <line x1="1028" y1="211" x2="1025" y2="245" stroke="#888888" stroke-width="1"/>
  <circle cx="1025" cy="247" r="3" fill="#f7f5f0" stroke="#888888" stroke-width="1"/>
  <line x1="1027" y1="249" x2="1035" y2="290" stroke="#888888" stroke-width="1"/>
  <circle cx="1036" cy="292" r="2" fill="#888888"/>

  <circle cx="935" cy="208" r="4" fill="#f7f5f0" stroke="#1a1a1a" stroke-width="1.2"/>
  <line x1="935" y1="211" x2="930" y2="245" stroke="#1a1a1a" stroke-width="1.4"/>
  <circle cx="930" cy="247" r="3.5" fill="#f7f5f0" stroke="#1a1a1a" stroke-width="1.2"/>
  <line x1="932" y1="249" x2="942" y2="290" stroke="#1a1a1a" stroke-width="1.4"/>
  <circle cx="943" cy="292" r="2.5" fill="#1a1a1a"/>

  <circle cx="918" cy="208" r="3.5" fill="#f7f5f0" stroke="#888888" stroke-width="1"/>
  <line x1="918" y1="211" x2="915" y2="245" stroke="#888888" stroke-width="1"/>
  <circle cx="915" cy="247" r="3" fill="#f7f5f0" stroke="#888888" stroke-width="1"/>
  <line x1="917" y1="249" x2="925" y2="290" stroke="#888888" stroke-width="1"/>
  <circle cx="926" cy="292" r="2" fill="#888888"/>

  <line x1="880" y1="300" x2="1100" y2="300" stroke="#999999" stroke-width="0.5"/>

  <line x1="1040" y1="247" x2="1090" y2="235" stroke="#1a1a1a" stroke-width="0.4"/>
  <text x="1093" y="233" font-family="monospace" font-size="9" fill="#1a1a1a" letter-spacing="1">12 JOINTS</text>
  <text x="1093" y="245" font-family="monospace" font-size="8" fill="#888888">3 x 4 LEGS</text>

  <line x1="1110" y1="191" x2="1155" y2="170" stroke="#1a1a1a" stroke-width="0.4"/>
  <text x="1158" y="169" font-family="monospace" font-size="9" fill="#1a1a1a" letter-spacing="1">RGB-D / LIDAR</text>

  <line x1="885" y1="315" x2="1125" y2="315" stroke="#1a1a1a" stroke-width="0.4"/>
  <line x1="885" y1="312" x2="885" y2="318" stroke="#1a1a1a" stroke-width="0.4"/>
  <line x1="1125" y1="312" x2="1125" y2="318" stroke="#1a1a1a" stroke-width="0.4"/>
  <text x="1005" y="328" font-family="monospace" font-size="9" fill="#666666" text-anchor="middle">700mm</text>

</svg>
