<svg xmlns="http://www.w3.org/2000/svg" viewBox="0 0 1400 480" width="1400" height="480" role="img" aria-label="Yoon Jae — Robotics and AI Engineer">

  <!-- Off-white paper -->
  <rect width="1400" height="480" fill="#f7f5f0"/>

  <!-- Top eyebrow markers -->
  <line x1="100" y1="60" x2="135" y2="60" stroke="#1a1a1a" stroke-width="1"/>
  <text x="145" y="64" font-family="ui-monospace, SFMono-Regular, Menlo, Monaco, Consolas, monospace" font-size="11" fill="#1a1a1a" letter-spacing="3">01 / PROFILE</text>

  <line x1="1265" y1="60" x2="1300" y2="60" stroke="#1a1a1a" stroke-width="1"/>
  <text x="1255" y="64" font-family="ui-monospace, SFMono-Regular, Menlo, Monaco, Consolas, monospace" font-size="11" fill="#1a1a1a" letter-spacing="3" text-anchor="end">JEJU</text>

  <!-- Main name -->
  <text x="100" y="195" font-family="Georgia, 'Times New Roman', serif" font-size="120" font-weight="300" font-style="italic" fill="#1a1a1a" letter-spacing="-3">Yoon Jae</text>

  <!-- Korean / Japanese reading -->
  <text x="100" y="230" font-family="Georgia, 'Times New Roman', serif" font-size="22" font-weight="300" fill="#888888" letter-spacing="8">YOON JAE</text>

  <!-- Thin separator -->
  <line x1="100" y1="270" x2="160" y2="270" stroke="#1a1a1a" stroke-width="1"/>

  <!-- Subtitle two-liner -->
  <text x="100" y="305" font-family="-apple-system, BlinkMacSystemFont, 'Segoe UI', sans-serif" font-size="16" fill="#1a1a1a" font-weight="400" letter-spacing="1">Robotics and AI engineer.</text>
  <text x="100" y="328" font-family="-apple-system, BlinkMacSystemFont, 'Segoe UI', sans-serif" font-size="16" fill="#666666" font-weight="300" letter-spacing="1">Building autonomy for legged robots.</text>

  <!-- Bottom metadata strip -->
  <line x1="100" y1="395" x2="1300" y2="395" stroke="#1a1a1a" stroke-width="0.5"/>

  <g font-family="ui-monospace, SFMono-Regular, Menlo, Monaco, Consolas, monospace" font-size="10" fill="#666666" letter-spacing="2">
    <text x="100" y="420">ROLE</text>
    <text x="100" y="438" fill="#1a1a1a" font-size="12">Engineer</text>

    <text x="260" y="420">FOCUS</text>
    <text x="260" y="438" fill="#1a1a1a" font-size="12">Unitree Go2</text>

    <text x="450" y="420">STACK</text>
    <text x="450" y="438" fill="#1a1a1a" font-size="12">ROS2 / PyTorch / Isaac Sim</text>

    <text x="800" y="420">EST.</text>
    <text x="800" y="438" fill="#1a1a1a" font-size="12">2022</text>

    <text x="920" y="420">STATUS</text>
    <text x="920" y="438" fill="#1a1a1a" font-size="12">Active</text>
  </g>

  <!-- Hanko (red seal stamp) -->
  <g transform="translate(1220, 175)">
    <rect x="0" y="0" width="80" height="80" fill="none" stroke="#c8202e" stroke-width="3"/>
    <text x="40" y="36" font-family="Georgia, serif" font-size="22" fill="#c8202e" text-anchor="middle" font-weight="500">YJ</text>
    <text x="40" y="62" font-family="Georgia, serif" font-size="10" fill="#c8202e" text-anchor="middle" font-weight="500" letter-spacing="2">2025</text>
  </g>

  <!-- Go2 quadruped technical drawing -->
  <g transform="translate(820, 120)" stroke="#1a1a1a" fill="none">

    <!-- Spec callouts (top) -->
    <text x="0" y="-8" font-family="ui-monospace, SFMono-Regular, Menlo, Monaco, Consolas, monospace" font-size="9" fill="#999999" letter-spacing="2" stroke="none">FIG. 01 — QUADRUPED REFERENCE</text>

    <!-- Main body chassis -->
    <rect x="80" y="50" width="180" height="38" stroke-width="1.2" rx="2"/>

    <!-- Inner body detail lines -->
    <line x1="100" y1="58" x2="240" y2="58" stroke-width="0.5"/>
    <line x1="100" y1="80" x2="240" y2="80" stroke-width="0.5"/>

    <!-- Body screws/details -->
    <circle cx="100" cy="69" r="2" fill="#1a1a1a"/>
    <circle cx="240" cy="69" r="2" fill="#1a1a1a"/>

    <!-- Head -->
    <path d="M 260 55 L 295 55 L 305 65 L 305 78 L 295 88 L 260 88 Z" stroke-width="1.2"/>

    <!-- Depth camera (eye) -->
    <circle cx="290" cy="71" r="4" stroke-width="1" fill="#1a1a1a"/>
    <circle cx="290" cy="71" r="9" stroke-width="0.5" stroke-dasharray="2 2"/>

    <!-- LiDAR on top of head -->
    <rect x="272" y="44" width="20" height="8" stroke-width="0.8" rx="1"/>
    <circle cx="282" cy="48" r="1.5" fill="#1a1a1a"/>

    <!-- Antenna -->
    <line x1="275" y1="44" x2="275" y2="35" stroke-width="0.5"/>
    <circle cx="275" cy="34" r="1" fill="#1a1a1a"/>

    <!-- Tail/handle on rear -->
    <rect x="65" y="60" width="18" height="18" stroke-width="1" rx="1"/>

    <!-- Front-Right leg (solid) -->
    <circle cx="225" cy="88" r="4" fill="#f7f5f0" stroke-width="1.2"/>
    <line x1="225" y1="91" x2="220" y2="125" stroke-width="1.4"/>
    <circle cx="220" cy="127" r="3.5" fill="#f7f5f0" stroke-width="1.2"/>
    <line x1="222" y1="129" x2="232" y2="170" stroke-width="1.4"/>
    <circle cx="233" cy="172" r="2.5" fill="#1a1a1a"/>

    <!-- Front-Left leg (faded) -->
    <circle cx="208" cy="88" r="3.5" fill="#f7f5f0" stroke-width="1" opacity="0.6"/>
    <line x1="208" y1="91" x2="205" y2="125" stroke-width="1" opacity="0.6"/>
    <circle cx="205" cy="127" r="3" fill="#f7f5f0" stroke-width="1" opacity="0.6"/>
    <line x1="207" y1="129" x2="215" y2="170" stroke-width="1" opacity="0.6"/>
    <circle cx="216" cy="172" r="2" fill="#1a1a1a" opacity="0.6"/>

    <!-- Rear-Right leg -->
    <circle cx="115" cy="88" r="4" fill="#f7f5f0" stroke-width="1.2"/>
    <line x1="115" y1="91" x2="110" y2="125" stroke-width="1.4"/>
    <circle cx="110" cy="127" r="3.5" fill="#f7f5f0" stroke-width="1.2"/>
    <line x1="112" y1="129" x2="122" y2="170" stroke-width="1.4"/>
    <circle cx="123" cy="172" r="2.5" fill="#1a1a1a"/>

    <!-- Rear-Left leg (faded) -->
    <circle cx="98" cy="88" r="3.5" fill="#f7f5f0" stroke-width="1" opacity="0.6"/>
    <line x1="98" y1="91" x2="95" y2="125" stroke-width="1" opacity="0.6"/>
    <circle cx="95" cy="127" r="3" fill="#f7f5f0" stroke-width="1" opacity="0.6"/>
    <line x1="97" y1="129" x2="105" y2="170" stroke-width="1" opacity="0.6"/>
    <circle cx="106" cy="172" r="2" fill="#1a1a1a" opacity="0.6"/>

    <!-- Ground line -->
    <line x1="60" y1="180" x2="280" y2="180" stroke="#1a1a1a" stroke-width="0.5" stroke-dasharray="3 2"/>

    <!-- Callout: 12 joints -->
    <line x1="220" y1="127" x2="270" y2="115" stroke-width="0.4"/>
    <text x="273" y="113" font-family="ui-monospace, SFMono-Regular, Menlo, Monaco, Consolas, monospace" font-size="9" fill="#1a1a1a" letter-spacing="1" stroke="none">12 JOINTS</text>
    <text x="273" y="125" font-family="ui-monospace, SFMono-Regular, Menlo, Monaco, Consolas, monospace" font-size="8" fill="#888888" stroke="none">3 x 4 LEGS</text>

    <!-- Callout: sensor head -->
    <line x1="290" y1="71" x2="335" y2="50" stroke-width="0.4"/>
    <text x="338" y="49" font-family="ui-monospace, SFMono-Regular, Menlo, Monaco, Consolas, monospace" font-size="9" fill="#1a1a1a" letter-spacing="1" stroke="none">RGB-D / LIDAR</text>

    <!-- Dimension line at bottom -->
    <line x1="65" y1="195" x2="305" y2="195" stroke-width="0.4"/>
    <line x1="65" y1="192" x2="65" y2="198" stroke-width="0.4"/>
    <line x1="305" y1="192" x2="305" y2="198" stroke-width="0.4"/>
    <text x="185" y="208" font-family="ui-monospace, SFMono-Regular, Menlo, Monaco, Consolas, monospace" font-size="9" fill="#666666" text-anchor="middle" stroke="none">700mm</text>
  </g>
</svg>
